<svg width="12" height="12" viewBox="0 0 12 12" fill="none" xmlns="http://www.w3.org/2000/svg">
<g clip-path="url(#clip0_895_1818)">
<path d="M7.99994 12C8.32583 12 8.63218 11.8734 8.86206 11.6433C9.33736 11.1675 9.33736 10.3944 8.86206 9.91882L4.94371 6L8.86206 2.08188C9.09265 1.85129 9.21924 1.54494 9.21924 1.21906C9.21924 0.893412 9.09265 0.587529 8.86206 0.357176C8.63218 0.127294 8.32583 1.06538e-08 7.99994 1.45399e-08C7.67453 1.84204e-08 7.36841 0.127294 7.13783 0.357177L2.35712 5.13788C2.127 5.36824 1.99994 5.67412 1.99994 6C1.99994 6.32565 2.127 6.632 2.35712 6.86212L7.13806 11.6433C7.36841 11.8734 7.6743 12 7.99994 12Z" fill="black" fill-opacity="0.12"/>
</g>
<defs>
<clipPath id="clip0_895_1818">
<rect width="12" height="7.21906" fill="white" transform="translate(9.21924) rotate(90)"/>
</clipPath>
</defs>
</svg>
