<svg width="12" height="12" viewBox="0 0 12 12" fill="none" xmlns="http://www.w3.org/2000/svg">
<g clip-path="url(#clip0_895_1825)">
<path d="M4.21929 -5.3297e-08C3.89341 -3.90523e-08 3.58706 0.126588 3.35718 0.356706C2.88188 0.832471 2.88188 1.60565 3.35718 2.08118L7.27553 6L3.35718 9.91812C3.12659 10.1487 3 10.4551 3 10.7809C3 11.1066 3.12659 11.4125 3.35718 11.6428C3.58706 11.8727 3.89341 12 4.21929 12C4.54471 12 4.85082 11.8727 5.08141 11.6428L9.86212 6.86212C10.0922 6.63176 10.2193 6.32588 10.2193 6C10.2193 5.67435 10.0922 5.368 9.86212 5.13788L5.08118 0.356706C4.85082 0.126588 4.54494 -6.75315e-08 4.21929 -5.3297e-08Z" fill="#5C2D91"/>
</g>
<defs>
<clipPath id="clip0_895_1825">
<rect width="12" height="7.21906" fill="white" transform="translate(3 12) rotate(-90)"/>
</clipPath>
</defs>
</svg>
