<svg width="25" height="24" viewBox="0 0 25 24" fill="none" xmlns="http://www.w3.org/2000/svg">
<g clip-path="url(#clip0_895_1923)">
<path d="M5.38342 18.2599C6.07651 17.7495 6.7129 16.9052 6.7129 15.6577C6.7129 14.1832 5.51573 12.9861 4.04133 12.9861C2.56693 12.9861 1.36977 14.1832 1.36977 15.6577C1.36977 16.9052 2.00615 17.7432 2.69925 18.2599C1.19964 19.4445 0.682971 21.612 0.512847 22.6201C0.462441 22.9478 0.550653 23.2754 0.764882 23.5274C0.979112 23.7795 1.28785 23.9244 1.6218 23.9244H6.46087C6.78851 23.9244 7.10355 23.7795 7.31778 23.5274C7.53201 23.2754 7.62022 22.9478 7.56982 22.6201C7.39969 21.612 6.88302 19.4445 5.38342 18.2599ZM2.62994 15.6577C2.62994 14.8763 3.26633 14.2463 4.04133 14.2463C4.81634 14.2463 5.45273 14.8826 5.45273 15.6577C5.45273 16.8989 4.44459 17.4156 4.04133 17.5731C3.63808 17.4156 2.62994 16.8989 2.62994 15.6577ZM1.78562 22.6642C1.97465 21.6246 2.53543 19.5516 4.04133 18.9089C5.54724 19.5516 6.10802 21.6246 6.29704 22.6642H1.78562Z" fill="#5C2D91"/>
<path d="M24.4878 22.6201C24.324 21.6057 23.801 19.4445 22.3014 18.2599C22.9945 17.7495 23.6309 16.9052 23.6309 15.6577C23.6309 14.1832 22.4337 12.9861 20.9593 12.9861C19.4849 12.9861 18.2877 14.1832 18.2877 15.6577C18.2877 16.9052 18.9241 17.7432 19.6172 18.2599C18.1176 19.4445 17.6009 21.612 17.4308 22.6201C17.3804 22.9478 17.4686 23.2754 17.6829 23.5274C17.8971 23.7795 18.2058 23.9244 18.5398 23.9244H23.3788C23.7065 23.9244 24.0215 23.7795 24.2358 23.5274C24.45 23.2754 24.5382 22.9478 24.4878 22.6201ZM19.5479 15.6577C19.5479 14.8763 20.1843 14.2463 20.9593 14.2463C21.7406 14.2463 22.3707 14.8826 22.3707 15.6577C22.3707 16.8989 21.3626 17.4156 20.9593 17.5731C20.556 17.4156 19.5479 16.8989 19.5479 15.6577ZM18.7036 22.6642C18.8926 21.6246 19.4534 19.5516 20.9593 18.9089C22.4652 19.5516 23.026 21.6246 23.215 22.6642H18.7036Z" fill="#5C2D91"/>
<path d="M11.1612 5.27383C9.66156 6.45839 9.14488 8.62589 8.97476 9.64033C8.92435 9.96797 9.01257 10.2956 9.2268 10.5477C9.44103 10.7997 9.74977 10.9446 10.0837 10.9446H14.9228C15.2504 10.9446 15.5655 10.7997 15.7797 10.5477C15.9939 10.2956 16.0821 9.96797 16.0317 9.64033C15.8679 8.62589 15.3449 6.46469 13.8453 5.28013C14.5384 4.76976 15.1748 3.92544 15.1748 2.67787C15.1748 1.20347 13.9776 0.00630188 12.5032 0.00630188C11.0288 0.00630188 9.83168 1.20347 9.83168 2.67787C9.82538 3.91914 10.4681 4.76346 11.1612 5.27383ZM14.759 9.67813H10.2475C10.4366 8.63849 10.9973 6.5655 12.5032 5.92282C14.0092 6.5718 14.5636 8.63849 14.759 9.67813ZM12.5032 1.26017C13.2846 1.26017 13.9146 1.89656 13.9146 2.67157C13.9146 3.91284 12.9065 4.42951 12.5032 4.58703C12.0937 4.42951 11.0856 3.91284 11.0856 2.67157C11.0856 1.89656 11.7219 1.26017 12.5032 1.26017Z" fill="#5C2D91"/>
<path d="M4.07299 11.4424C4.09819 11.4424 4.12969 11.4487 4.1549 11.4487C4.46994 11.4487 4.74088 11.2155 4.77868 10.9005C5.10003 8.40536 6.61853 6.20006 8.84274 4.99659C9.15148 4.83277 9.2649 4.44842 9.09478 4.14598C8.93095 3.83724 8.5466 3.72382 8.24416 3.88764C5.6671 5.28013 3.90286 7.84459 3.53111 10.7367C3.487 11.0832 3.72644 11.3983 4.07299 11.4424Z" fill="#5C2D91"/>
<path d="M16.2084 4.96509C18.4389 6.12445 19.9889 8.31085 20.3481 10.8123C20.3922 11.1273 20.6631 11.3542 20.9719 11.3542C21.0034 11.3542 21.0349 11.3542 21.0601 11.3479C21.4066 11.2975 21.646 10.9761 21.5956 10.6359C21.1735 7.73747 19.3777 5.19822 16.7881 3.84983C16.4793 3.68601 16.1013 3.81203 15.9375 4.11447C15.7799 4.42951 15.8997 4.80757 16.2084 4.96509Z" fill="#5C2D91"/>
<path d="M16.2273 18.9593C13.9716 20.0746 11.2937 20.0242 9.06318 18.8396C8.75444 18.6758 8.37639 18.7955 8.21256 19.0979C8.04874 19.4067 8.16216 19.7847 8.4709 19.9485C9.81298 20.6605 11.2937 21.0197 12.7681 21.0197C14.1417 21.0197 15.5216 20.7109 16.7817 20.0872C17.0968 19.9359 17.2228 19.5579 17.0716 19.2428C16.9141 18.9404 16.5423 18.8081 16.2273 18.9593Z" fill="#5C2D91"/>
</g>
<defs>
<clipPath id="clip0_895_1923">
<rect width="24" height="23.9244" fill="white" transform="translate(0.5)"/>
</clipPath>
</defs>
</svg>
