<svg width="24" height="24" viewBox="0 0 24 24" fill="none" xmlns="http://www.w3.org/2000/svg">
<g clip-path="url(#clip0_895_1961)">
<path d="M19.9958 6.31153V4.78965C19.9958 2.69647 18.2993 1 16.2061 1H7.79388C5.70118 1 4.00424 2.69647 4.00424 4.78965V6.30541C1.71106 6.61788 0.000941176 8.576 0 10.8904V11.1049C0 13.1976 1.69647 14.8946 3.78965 14.8946H4.63577C4.98447 14.8946 5.26729 14.6118 5.26729 14.2631V4.78965C5.26729 3.39435 6.39812 2.26353 7.79341 2.26353H16.2061C17.6014 2.26353 18.7322 3.39482 18.7322 4.78965V14.3139C18.7407 17.2951 16.4442 19.776 13.4711 19.9981L13.5153 19.1708H10.5849L10.7365 22.0508H13.3322L13.3765 21.2424C16.8334 21.0673 19.6348 18.3741 19.9449 14.9266H20.2104C22.3031 14.9266 24 13.2301 24 11.1369V10.9224C24.0118 8.59812 22.2984 6.62541 19.9958 6.31153ZM3.78965 13.6315C2.39435 13.6315 1.26353 12.5007 1.26353 11.1054V10.8908C1.26447 9.27482 2.41176 7.88706 3.99812 7.58118L4.00424 13.6315H3.78965ZM22.7369 11.1054C22.7369 12.5007 21.6061 13.6315 20.2108 13.6315H20.0024V7.58118C21.5892 7.88659 22.736 9.27482 22.7369 10.8908V11.1054Z" fill="#5C2D91"/>
</g>
<defs>
<clipPath id="clip0_895_1961">
<rect width="24" height="21.0504" fill="white" transform="translate(0 1)"/>
</clipPath>
</defs>
</svg>
