<svg width="16" height="16" viewBox="0 0 16 16" fill="none" xmlns="http://www.w3.org/2000/svg">
<path d="M14.7284 15.9995H2.54327C1.14071 15.9995 0 14.8332 0 13.3992V12.1598C0 11.9203 0.18949 11.7266 0.423739 11.7266C0.657987 11.7266 0.847477 11.9203 0.847477 12.1598V13.3992C0.847477 14.3555 1.60795 15.133 2.54327 15.133H14.7279C14.9618 15.133 15.1517 14.9388 15.1517 14.6998V12.132C15.1517 11.8925 15.3412 11.6988 15.5754 11.6988C15.8097 11.6988 15.9992 11.8925 15.9992 12.132V14.6998C16 15.4161 15.4294 15.9995 14.7284 15.9995Z" fill="#5C2D91"/>
<path d="M8.44173 11.3698L12.1274 7.6011C12.5038 7.21662 12.5038 6.59307 12.1274 6.20859C11.7513 5.82368 11.1414 5.82368 10.765 6.20859L8.72827 8.29094H8.72241V0.781809C8.72241 0.349856 8.37982 -0.000411034 7.95692 -0.000411034H7.56121C7.13873 -0.000411034 6.79572 0.349856 6.79572 0.781809V8.28966H6.79195L4.75316 6.20474C4.37669 5.81983 3.76722 5.81983 3.39075 6.20474C3.01428 6.58965 3.01428 7.21277 3.39075 7.59768L7.0764 11.3659L7.08016 11.3698C7.45538 11.7543 8.06526 11.7543 8.44173 11.3698Z" fill="#5C2D91"/>
</svg>
