<svg width="24" height="24" viewBox="0 0 24 24" fill="none" xmlns="http://www.w3.org/2000/svg">
<path d="M12.0001 6.44849C9.02456 6.44849 6.61279 8.86072 6.61279 11.8358C6.61279 14.8113 9.02503 17.2231 12.0001 17.2231C14.9752 17.2231 17.3874 14.8108 17.3874 11.8358C17.3841 8.86166 14.9742 6.45178 12.0001 6.44849ZM12.0001 15.96C9.72244 15.96 7.87585 14.1134 7.87585 11.8358C7.87585 9.55813 9.72244 7.71154 12.0001 7.71154C14.2777 7.71154 16.1243 9.55813 16.1243 11.8358C16.121 14.112 14.2763 15.9567 12.0001 15.96Z" fill="#5C2D91"/>
<path d="M22.3642 9.04424H21.1012C20.9454 9.04282 20.8066 8.94447 20.7539 8.79812C20.6654 8.55812 20.5708 8.32423 20.4635 8.09082C20.392 7.952 20.4202 7.78212 20.5332 7.67388L21.4428 6.76424C22.0809 6.12988 22.0842 5.09835 21.4499 4.45976C21.4475 4.45741 21.4452 4.45506 21.4428 4.45271L19.5482 2.55812C18.9096 1.92047 17.8753 1.92047 17.2367 2.55812L16.32 3.50541C16.2089 3.61271 16.0433 3.64047 15.9031 3.57506C15.6758 3.46776 15.4419 3.37318 15.2019 3.28471C15.0565 3.23059 14.9586 3.09271 14.9558 2.93741V1.63576C14.9558 0.734588 14.2273 0.00329412 13.3261 0H10.6734C9.77506 0.00329412 9.04753 0.730824 9.04376 1.62965V2.95576C9.04235 3.11153 8.944 3.25035 8.79765 3.30306C8.56376 3.38494 8.33647 3.48612 8.10918 3.58729C7.96753 3.64941 7.80282 3.61929 7.69224 3.51153L6.76376 2.58306C6.12518 1.94541 5.09082 1.94541 4.45224 2.58306L2.55812 4.47812C1.92 5.11247 1.91671 6.144 2.55106 6.78259C2.55341 6.78494 2.55576 6.78729 2.55812 6.78965L3.50541 7.73694C3.61788 7.84235 3.65082 8.00706 3.58729 8.14729C3.48612 8.37035 3.39153 8.59765 3.30306 8.82918C3.25271 8.97129 3.11906 9.06729 2.96847 9.06918H1.63576C0.74447 9.06918 0.0169412 9.78212 0 10.6734V13.3261C0.00329412 14.2245 0.730824 14.952 1.62965 14.9558H3C3.15153 14.9558 3.28612 15.0522 3.33459 15.1958C3.42306 15.4296 3.51765 15.6504 3.61882 15.8776C3.68094 16.016 3.648 16.1788 3.53694 16.2819L2.58306 17.2358C1.94494 17.8701 1.94165 18.9016 2.576 19.5402C2.57835 19.5426 2.58071 19.5449 2.58306 19.5473L4.47765 21.4419C5.11624 22.0795 6.15059 22.0795 6.78918 21.4419L7.73647 20.4946C7.84188 20.3873 8.00329 20.3572 8.14071 20.4188C8.368 20.52 8.59529 20.6146 8.82259 20.7031C8.97035 20.7544 9.06965 20.8941 9.06871 21.0504V22.3892C9.08235 23.2706 9.79153 23.9826 10.6729 23.9995H13.3256C14.224 23.9962 14.9515 23.2687 14.9553 22.3699V21.0438C14.9567 20.888 15.0551 20.7492 15.2014 20.6965C15.4362 20.6151 15.6659 20.52 15.8899 20.4122C16.0296 20.3468 16.1958 20.3746 16.3068 20.4819L17.2353 21.4165C17.8739 22.0541 18.9082 22.0541 19.5468 21.4165L21.4414 19.5219C22.0795 18.8875 22.0828 17.856 21.4485 17.2174C21.4461 17.2151 21.4438 17.2127 21.4414 17.2104L20.5256 16.2946C20.4165 16.1845 20.3887 16.0174 20.456 15.8776C20.5633 15.6504 20.6579 15.4165 20.7464 15.1765C20.7991 15.0296 20.9379 14.9313 21.0936 14.9304H22.3567C23.2504 14.9341 23.9816 14.2198 23.9986 13.3261V10.6734C23.9967 9.77271 23.2654 9.04424 22.3642 9.04424ZM22.3704 13.6927H21.1073C20.4235 13.696 19.8136 14.1242 19.5788 14.7666C19.5031 14.9685 19.4146 15.1708 19.3261 15.3981C19.0348 16.0184 19.1609 16.7544 19.6419 17.2424L20.5576 18.1581C20.7007 18.2913 20.7087 18.5148 20.5755 18.6579C20.5699 18.664 20.5638 18.6701 20.5576 18.6758L18.6631 20.5704C18.5186 20.7101 18.2894 20.7101 18.1449 20.5704L17.1976 19.5788C16.7144 19.0993 15.984 18.9708 15.3661 19.2569C15.1704 19.3454 14.9746 19.4273 14.7722 19.4969C14.1266 19.7322 13.6955 20.3445 13.6922 21.0315V22.3515C13.6922 22.5539 13.5285 22.7176 13.3261 22.7176H10.6734C10.4711 22.7176 10.3073 22.5534 10.3073 22.3515V21.0254C10.304 20.3421 9.87953 19.7318 9.24 19.4908C9.03906 19.4216 8.84282 19.3393 8.65271 19.2447C8.43859 19.1468 8.20612 19.0969 7.97082 19.0993C7.53694 19.0993 7.12094 19.272 6.81506 19.5793L5.86776 20.5266C5.72329 20.6664 5.49412 20.6664 5.34965 20.5266L3.45506 18.632C3.312 18.4988 3.304 18.2753 3.43718 18.1322C3.44282 18.1261 3.44894 18.12 3.45506 18.1144L4.42118 17.1798C4.90118 16.6969 5.032 15.9675 4.74965 15.3482C4.66118 15.1525 4.58541 14.9567 4.50965 14.7609C4.27482 14.1224 3.66824 13.6965 2.98729 13.6936H1.63576C1.43341 13.6969 1.26682 13.536 1.26306 13.3336C1.26306 13.3313 1.26306 13.3294 1.26306 13.3271V10.6744C1.26306 10.472 1.42729 10.3082 1.62918 10.3082H2.99341C3.67388 10.3049 4.28094 9.87953 4.51576 9.24094C4.59153 9.03906 4.67388 8.84282 4.75576 8.65365C5.03765 8.03106 4.904 7.29882 4.42118 6.816L3.47388 5.86871C3.33082 5.73553 3.32282 5.512 3.456 5.36894C3.46165 5.36282 3.46776 5.35671 3.47388 5.35106L5.36847 3.45647C5.51294 3.31671 5.74212 3.31671 5.88659 3.45647L6.80235 4.42259C7.28659 4.90965 8.024 5.04094 8.64659 4.75106C8.83624 4.66259 9.03812 4.58071 9.24047 4.50494C9.87906 4.26635 10.3035 3.65835 10.3078 2.97647V1.63576C10.3045 1.43341 10.4654 1.26682 10.6678 1.26306C10.6701 1.26306 10.672 1.26306 10.6744 1.26306H13.3271C13.5294 1.26306 13.6932 1.42729 13.6932 1.62918V2.93647C13.6946 3.624 14.1261 4.23765 14.7732 4.47106C14.9751 4.54682 15.1774 4.62918 15.3732 4.71718C15.9882 5.00847 16.7191 4.89035 17.2108 4.42024L18.1332 3.47294C18.2776 3.33318 18.5068 3.33318 18.6513 3.47294L20.5459 5.36753C20.6889 5.50071 20.6969 5.72424 20.5638 5.86729C20.5581 5.87341 20.552 5.87953 20.5459 5.88518L19.6362 6.79482C19.1558 7.28565 19.0296 8.02306 19.3205 8.64518C19.4089 8.84094 19.4908 9.04329 19.5732 9.27671C19.808 9.91906 20.4179 10.3473 21.1016 10.3506H22.3647C22.5671 10.3506 22.7308 10.5148 22.7308 10.7167L22.7369 13.3252C22.7369 13.5285 22.5727 13.6927 22.3704 13.6927Z" fill="#5C2D91"/>
</svg>
