<svg width="20" height="24" viewBox="0 0 20 24" fill="none" xmlns="http://www.w3.org/2000/svg">
<path d="M17.5811 0C18.6258 0 19.4736 0.847073 19.4736 1.89648V20.2119C19.4736 22.3013 17.7786 24 15.6846 24H2.42383C1.37442 24 0.527344 23.1529 0.527344 22.1035V3.78809C0.527425 1.69879 2.22614 8.09935e-05 4.31543 0H17.5811ZM4.32031 1.26074C2.92272 1.26074 1.79305 2.39521 1.79297 3.78809V22.1084C1.79306 22.4566 2.07565 22.7393 2.42383 22.7393H15.6846C17.0822 22.7393 18.2118 21.6048 18.2119 20.2119V1.8916C18.2118 1.54344 17.9292 1.26074 17.5811 1.26074H4.32031ZM15.0547 18.9463C15.4026 18.9465 15.6844 19.2282 15.6846 19.5762C15.6846 19.9243 15.4027 20.2068 15.0547 20.207H4.62598C4.27779 20.207 3.99512 19.9244 3.99512 19.5762C3.99527 19.2281 4.27788 18.9463 4.62598 18.9463H15.0547ZM15.0547 13.8965C15.4027 13.8967 15.6846 14.1792 15.6846 14.5273C15.6844 14.8753 15.4027 15.157 15.0547 15.1572H4.62598C4.27788 15.1572 3.99526 14.8754 3.99512 14.5273C3.99512 14.1791 4.27779 13.8965 4.62598 13.8965H15.0547ZM8.85645 3.78809C9.20468 3.78809 9.4873 4.07071 9.4873 4.41895V9.55762C9.4873 9.90585 9.20468 10.1885 8.85645 10.1885H4.62109C4.27301 10.1836 3.99041 9.89598 3.99512 9.54785V4.41895C3.99512 4.07076 4.27781 3.78817 4.62598 3.78809H8.85645ZM15.0547 8.84277C15.4027 8.84294 15.6844 9.12465 15.6846 9.47266C15.6846 9.82079 15.4028 10.1033 15.0547 10.1035H12.5273C12.1791 10.1035 11.8965 9.82089 11.8965 9.47266C11.8966 9.12455 12.1792 8.84277 12.5273 8.84277H15.0547ZM5.25684 8.92188H8.22656V5.05859H5.25684V8.92188ZM15.0547 3.78809C15.4028 3.78825 15.6846 4.07081 15.6846 4.41895C15.6845 4.76701 15.4027 5.04964 15.0547 5.0498H12.5273C12.1792 5.0498 11.8966 4.76711 11.8965 4.41895C11.8965 4.07071 12.1791 3.78809 12.5273 3.78809H15.0547Z" fill="#5C2D91"/>
</svg>
