<svg width="56" height="45" viewBox="0 0 56 45" fill="none" xmlns="http://www.w3.org/2000/svg">
<path d="M34.6667 19.8846H21.3333C20.9797 19.8846 20.6406 20.0224 20.3905 20.2676C20.1405 20.5129 20 20.8455 20 21.1923V23.1538C20 23.5007 20.1405 23.8333 20.3905 24.0785C20.6406 24.3238 20.9797 24.4615 21.3333 24.4615H34.6667C35.0203 24.4615 35.3594 24.3238 35.6095 24.0785C35.8595 23.8333 36 23.5007 36 23.1538V21.1923C36 20.8455 35.8595 20.5129 35.6095 20.2676C35.3594 20.0224 35.0203 19.8846 34.6667 19.8846ZM34.6667 23.1538H21.3333V21.1923H34.6667V23.1538ZM34.6667 14H21.3333C20.9797 14 20.6406 14.1378 20.3905 14.383C20.1405 14.6283 20 14.9609 20 15.3077V17.2692C20 17.6161 20.1405 17.9487 20.3905 18.1939C20.6406 18.4391 20.9797 18.5769 21.3333 18.5769H34.6667C35.0203 18.5769 35.3594 18.4391 35.6095 18.1939C35.8595 17.9487 36 17.6161 36 17.2692V15.3077C36 14.9609 35.8595 14.6283 35.6095 14.383C35.3594 14.1378 35.0203 14 34.6667 14ZM34.6667 17.2692H21.3333V15.3077H34.6667V17.2692ZM30.6667 28.3846C30.6667 28.558 30.5964 28.7243 30.4714 28.847C30.3464 28.9696 30.1768 29.0385 30 29.0385H28.6667V30.3462C28.6667 30.5196 28.5964 30.6859 28.4714 30.8085C28.3464 30.9311 28.1768 31 28 31C27.8232 31 27.6536 30.9311 27.5286 30.8085C27.4036 30.6859 27.3333 30.5196 27.3333 30.3462V29.0385H26C25.8232 29.0385 25.6536 28.9696 25.5286 28.847C25.4036 28.7243 25.3333 28.558 25.3333 28.3846C25.3333 28.2112 25.4036 28.0449 25.5286 27.9223C25.6536 27.7997 25.8232 27.7308 26 27.7308H27.3333V26.4231C27.3333 26.2497 27.4036 26.0834 27.5286 25.9607C27.6536 25.8381 27.8232 25.7692 28 25.7692C28.1768 25.7692 28.3464 25.8381 28.4714 25.9607C28.5964 26.0834 28.6667 26.2497 28.6667 26.4231V27.7308H30C30.1768 27.7308 30.3464 27.7997 30.4714 27.9223C30.5964 28.0449 30.6667 28.2112 30.6667 28.3846Z" fill="#5C2D91"/>
</svg>
