<svg width="16" height="16" viewBox="0 0 16 16" fill="none" xmlns="http://www.w3.org/2000/svg">
<g clip-path="url(#clip0_895_1783)">
<path d="M16 5.62573C16 5.19122 15.8312 4.78275 15.5244 4.47624C14.89 3.84251 13.8591 3.84251 13.2251 4.47624L8 9.70071L2.77584 4.47624C2.46839 4.16878 2.05992 4 1.62541 4C1.19122 4 0.783373 4.16878 0.476235 4.47624C0.169725 4.78275 0 5.19122 0 5.62573C0 6.05961 0.169725 6.46776 0.476235 6.77522L6.85051 13.1495C7.15765 13.4563 7.56549 13.6257 8 13.6257C8.4342 13.6257 8.84267 13.4563 9.14949 13.1495L15.5244 6.7749C15.8312 6.46776 16 6.05992 16 5.62573Z" fill="#5C2D91"/>
</g>
<defs>
<clipPath id="clip0_895_1783">
<rect width="16" height="9.62541" fill="white" transform="translate(0 4)"/>
</clipPath>
</defs>
</svg>
