<svg width="25" height="24" viewBox="0 0 25 24" fill="none" xmlns="http://www.w3.org/2000/svg">
<g clip-path="url(#clip0_895_1946)">
<path d="M17.2646 22.1548C16.816 22.5276 16.2409 22.7362 15.6532 22.7362H2.39573C2.04818 22.7362 1.76382 22.4518 1.76382 22.1043V3.79147C1.76382 2.39494 2.89494 1.26382 4.29147 1.26382H17.549C17.8965 1.26382 18.1809 1.54818 18.1809 1.89573V8.65719C18.1809 9.00474 18.4652 9.2891 18.8128 9.2891C19.1603 9.2891 19.4447 9.00474 19.4447 8.65719V1.89573C19.4447 0.853081 18.5916 0 17.549 0H4.29147C2.19984 0 0.5 1.69984 0.5 3.79147V22.1043C0.5 23.1469 1.35308 24 2.39573 24H15.6532C16.5316 24 17.391 23.6904 18.0671 23.128C18.3389 22.9068 18.3705 22.5087 18.1493 22.237C17.9344 21.9716 17.5363 21.9336 17.2646 22.1548Z" fill="#5C2D91"/>
<path d="M15.6596 4.42338C15.6596 4.07583 15.3752 3.79147 15.0277 3.79147H4.91707C4.56952 3.79147 4.28516 4.07583 4.28516 4.42338C4.28516 4.77094 4.56952 5.0553 4.91707 5.0553H15.0213C15.3752 5.0553 15.6596 4.77094 15.6596 4.42338Z" fill="#5C2D91"/>
<path d="M5.46051 8.84677H4.91707C4.56952 8.84677 4.28516 9.13113 4.28516 9.47868C4.28516 9.82623 4.56952 10.1106 4.91707 10.1106H5.46051C5.80806 10.1106 6.09242 9.82623 6.09242 9.47868C6.09242 9.13113 5.81438 8.84677 5.46051 8.84677Z" fill="#5C2D91"/>
<path d="M4.91707 15.1659H5.46051C5.80806 15.1659 6.09242 14.8815 6.09242 14.5339C6.09242 14.1864 5.80806 13.902 5.46051 13.902H4.91707C4.56952 13.902 4.28516 14.1864 4.28516 14.5339C4.28516 14.8815 4.56952 15.1659 4.91707 15.1659Z" fill="#5C2D91"/>
<path d="M4.91707 20.2022H15.0213C15.3689 20.2022 15.6532 19.9178 15.6532 19.5703C15.6532 19.2227 15.3689 18.9384 15.0213 18.9384H4.91707C4.56952 18.9384 4.28516 19.2227 4.28516 19.5703C4.28516 19.9178 4.56952 20.2022 4.91707 20.2022Z" fill="#5C2D91"/>
<path d="M23.9315 20.5308L20.0452 16.6382C19.5966 16.1896 18.9331 16.0885 18.1116 16.1327C18.4528 13.6935 18.9078 10.3634 16.456 7.91786C15.268 6.72987 13.625 6.12955 11.9505 6.26857C10.2759 6.40759 8.74666 7.27963 7.76088 8.66352C6.02312 11.0964 6.47178 14.4076 8.80985 16.3665C11.2174 18.376 14.3264 17.9526 16.6076 17.6367C16.5634 18.4581 16.6645 19.1217 17.1132 19.5703L21.0057 23.4629C21.3154 23.7725 21.7198 23.9242 22.1242 23.9242C22.5287 23.9242 22.9331 23.7725 23.2427 23.4629L23.9378 22.7678C24.2348 22.4708 24.3991 22.0727 24.3991 21.6493C24.3928 21.2259 24.2285 20.8278 23.9315 20.5308ZM16.7972 15.9747C16.7846 16.0758 16.7719 16.1769 16.753 16.2781C16.6519 16.2907 16.5508 16.3033 16.4497 16.3223C14.3012 16.6256 11.6219 16.9921 9.65661 15.3491C7.85566 13.8389 7.50179 11.2986 8.83513 9.43445C9.61238 8.35388 10.7561 7.69669 12.0579 7.58927C12.1779 7.57663 12.298 7.57663 12.4181 7.57663C13.5745 7.57663 14.6866 8.03161 15.5144 8.85941C17.5113 10.8436 17.1132 13.6872 16.7972 15.9747ZM22.9963 21.8262L22.3012 22.5213C22.2001 22.6224 22.0421 22.6224 21.941 22.5213L18.0547 18.6351C17.9094 18.4897 17.9031 18.0284 17.9473 17.4724C18.5034 17.4281 18.9647 17.4345 19.11 17.5798L23.0026 21.4724C23.0658 21.5356 23.0784 21.6114 23.0784 21.6556C23.0721 21.6872 23.0595 21.763 22.9963 21.8262Z" fill="#5C2D91"/>
<path d="M12.9615 14.4076C11.9884 14.4076 11.4386 13.9526 11.249 12.9731H13.3407V12.3223H11.1858L11.1795 12.0758C11.1795 11.9621 11.1795 11.8546 11.1858 11.7472H13.3407V11.09H11.268C11.4765 10.1548 12.02 9.72511 12.9489 9.72511C13.4734 9.72511 13.9031 9.83885 14.0547 9.87676L14.2001 9.20062C14.0484 9.14375 13.5113 9.01736 12.9426 9.01736C11.5144 9.01736 10.6677 9.71247 10.4149 11.09H9.75141V11.7472H10.3391C10.3328 11.8483 10.3328 11.9621 10.3328 12.0758L10.3391 12.3223H9.73877V12.9794H10.4023C10.6361 14.4139 11.4892 15.1343 12.9552 15.1343C13.7261 15.1343 14.3012 14.9321 14.4212 14.8941L14.2759 14.218C14.1748 14.2433 13.6377 14.4076 12.9615 14.4076Z" fill="#5C2D91"/>
</g>
<defs>
<clipPath id="clip0_895_1946">
<rect width="23.8926" height="24" fill="white" transform="translate(0.5)"/>
</clipPath>
</defs>
</svg>
