<svg width="24" height="24" viewBox="0 0 24 24" fill="none" xmlns="http://www.w3.org/2000/svg">
<g clip-path="url(#clip0_931_2736)">
<path d="M4.88342 18.2599C5.57651 17.7495 6.2129 16.9052 6.2129 15.6577C6.2129 14.1832 5.01573 12.9861 3.54133 12.9861C2.06693 12.9861 0.869765 14.1832 0.869765 15.6577C0.869765 16.9052 1.50615 17.7432 2.19925 18.2599C0.699642 19.4445 0.182971 21.612 0.0128475 22.6201C-0.0375594 22.9478 0.0506527 23.2754 0.264882 23.5274C0.479112 23.7795 0.787854 23.9244 1.1218 23.9244H5.96087C6.28851 23.9244 6.60355 23.7795 6.81778 23.5274C7.03201 23.2754 7.12022 22.9478 7.06982 22.6201C6.89969 21.612 6.38302 19.4445 4.88342 18.2599ZM2.12994 15.6577C2.12994 14.8763 2.76633 14.2463 3.54133 14.2463C4.31634 14.2463 4.95273 14.8826 4.95273 15.6577C4.95273 16.8989 3.94459 17.4156 3.54133 17.5731C3.13808 17.4156 2.12994 16.8989 2.12994 15.6577ZM1.28562 22.6642C1.47465 21.6246 2.03543 19.5516 3.54133 18.9089C5.04724 19.5516 5.60802 21.6246 5.79704 22.6642H1.28562Z" fill="#5C2D91"/>
<path d="M23.9878 22.6201C23.824 21.6057 23.301 19.4445 21.8014 18.2599C22.4945 17.7495 23.1309 16.9052 23.1309 15.6577C23.1309 14.1832 21.9337 12.9861 20.4593 12.9861C18.9849 12.9861 17.7877 14.1832 17.7877 15.6577C17.7877 16.9052 18.4241 17.7432 19.1172 18.2599C17.6176 19.4445 17.1009 21.612 16.9308 22.6201C16.8804 22.9478 16.9686 23.2754 17.1829 23.5274C17.3971 23.7795 17.7058 23.9244 18.0398 23.9244H22.8788C23.2065 23.9244 23.5215 23.7795 23.7358 23.5274C23.95 23.2754 24.0382 22.9478 23.9878 22.6201ZM19.0479 15.6577C19.0479 14.8763 19.6843 14.2463 20.4593 14.2463C21.2406 14.2463 21.8707 14.8826 21.8707 15.6577C21.8707 16.8989 20.8626 17.4156 20.4593 17.5731C20.056 17.4156 19.0479 16.8989 19.0479 15.6577ZM18.2036 22.6642C18.3926 21.6246 18.9534 19.5516 20.4593 18.9089C21.9652 19.5516 22.526 21.6246 22.715 22.6642H18.2036Z" fill="#5C2D91"/>
<path d="M10.6612 5.27383C9.16156 6.45839 8.64488 8.62589 8.47476 9.64033C8.42435 9.96797 8.51257 10.2956 8.7268 10.5477C8.94103 10.7997 9.24977 10.9446 9.58371 10.9446H14.4228C14.7504 10.9446 15.0655 10.7997 15.2797 10.5477C15.4939 10.2956 15.5821 9.96797 15.5317 9.64033C15.3679 8.62589 14.8449 6.46469 13.3453 5.28013C14.0384 4.76976 14.6748 3.92544 14.6748 2.67787C14.6748 1.20347 13.4776 0.00630188 12.0032 0.00630188C10.5288 0.00630188 9.33168 1.20347 9.33168 2.67787C9.32538 3.91914 9.96807 4.76346 10.6612 5.27383ZM14.259 9.67813H9.74754C9.93656 8.63849 10.4973 6.5655 12.0032 5.92282C13.5092 6.5718 14.0636 8.63849 14.259 9.67813ZM12.0032 1.26017C12.7846 1.26017 13.4146 1.89656 13.4146 2.67157C13.4146 3.91284 12.4065 4.42951 12.0032 4.58703C11.5937 4.42951 10.5856 3.91284 10.5856 2.67157C10.5856 1.89656 11.2219 1.26017 12.0032 1.26017Z" fill="#5C2D91"/>
<path d="M3.5725 11.4424C3.5977 11.4424 3.6292 11.4487 3.65441 11.4487C3.96945 11.4487 4.24039 11.2155 4.27819 10.9005C4.59954 8.40536 6.11805 6.20006 8.34225 4.99659C8.65099 4.83277 8.76441 4.44842 8.59429 4.14598C8.43046 3.83724 8.04611 3.72382 7.74367 3.88764C5.16662 5.28013 3.40237 7.84459 3.03062 10.7367C2.98652 11.0832 3.22595 11.3983 3.5725 11.4424Z" fill="#5C2D91"/>
<path d="M15.7084 4.96509C17.9389 6.12445 19.4889 8.31085 19.8481 10.8123C19.8922 11.1273 20.1631 11.3542 20.4719 11.3542C20.5034 11.3542 20.5349 11.3542 20.5601 11.3479C20.9066 11.2975 21.146 10.9761 21.0956 10.6359C20.6735 7.73747 18.8777 5.19822 16.2881 3.84983C15.9793 3.68601 15.6013 3.81203 15.4375 4.11447C15.2799 4.42951 15.3997 4.80757 15.7084 4.96509Z" fill="#5C2D91"/>
<path d="M15.7273 18.9593C13.4716 20.0746 10.7937 20.0242 8.56318 18.8396C8.25444 18.6758 7.87639 18.7955 7.71256 19.0979C7.54874 19.4067 7.66216 19.7847 7.9709 19.9485C9.31298 20.6605 10.7937 21.0197 12.2681 21.0197C13.6417 21.0197 15.0216 20.7109 16.2817 20.0872C16.5968 19.9359 16.7228 19.5579 16.5716 19.2428C16.4141 18.9404 16.0423 18.8081 15.7273 18.9593Z" fill="#5C2D91"/>
</g>
<defs>
<clipPath id="clip0_931_2736">
<rect width="24" height="23.9244" fill="white"/>
</clipPath>
</defs>
</svg>
