<svg width="24" height="24" viewBox="0 0 24 24" fill="none" xmlns="http://www.w3.org/2000/svg">
<path d="M17.2231 19.3302C19.5094 17.6982 21 15.0232 21 12C21 7.02944 16.9706 3 12 3C7.02944 3 3 7.02944 3 12C3 15.0141 4.48164 17.6821 6.75632 19.3155M17.2231 19.3302C15.7503 20.3815 13.9474 21 12 21C10.0526 21 8.24969 20.3815 6.77694 19.3302C6.77006 19.3253 6.76319 19.3204 6.75632 19.3155M17.2231 19.3302C16 16 14 16 12 16C10 16 8 16 6.75632 19.3155" stroke="#5C2D91" stroke-width="2"/>
<circle cx="12" cy="10" r="3" stroke="#5C2D91" stroke-width="2"/>
</svg>
