<svg width="101" height="20" viewBox="0 0 101 20" fill="none" xmlns="http://www.w3.org/2000/svg">
<path d="M6.20269 0.725763C2.65114 0.725763 0 3.05693 0 7.41068V19.2778H3.12527V13.4035C4.0012 13.9983 5.04296 14.2834 6.20269 14.2834C9.77761 14.2834 12.4532 11.8572 12.4532 7.48112C12.4532 3.12849 9.77761 0.725763 6.20269 0.725763ZM6.20269 11.3105C4.33287 11.3105 3.12527 10.1924 3.12527 7.48112C3.12527 4.81677 4.33287 3.6987 6.20269 3.6987C8.09477 3.6987 9.30459 4.81677 9.30459 7.48112C9.30459 10.1924 8.097 11.3105 6.20269 11.3105ZM20.449 0.725763C20.8783 0.719145 21.3071 0.759257 21.7278 0.845397L21.2069 3.84182C21.0177 3.81834 20.6615 3.79485 20.449 3.79485C18.6504 3.79485 17.8212 4.88833 17.8212 6.6012V14.0453H14.7004V6.36305C14.7004 3.15197 16.7839 0.725763 20.4545 0.725763H20.449ZM28.7819 0.725763C25.207 0.725763 22.4379 3.12849 22.4379 7.48112C22.4379 11.8807 25.2081 14.2834 28.7819 14.2834C32.3557 14.2834 35.1259 11.8807 35.1259 7.48112C35.1337 3.12849 32.3624 0.725763 28.7875 0.725763H28.7819ZM28.7819 11.3105C26.9121 11.3105 25.5865 10.1924 25.5865 7.50907C25.5865 4.82571 26.9121 3.70765 28.7819 3.70765C30.6295 3.70765 31.9784 4.82571 31.9784 7.50907C31.9784 10.1924 30.635 11.3105 28.7875 11.3105H28.7819ZM47.912 0.963911L43.371 7.45764L47.9175 14.0453H44.4606L41.6425 9.78881L38.8244 14.0453H35.3686L39.9374 7.45764L35.3686 0.963911H38.8522L41.6425 5.17343L44.4372 0.962799L47.912 0.963911ZM49.567 0.963911H52.6934V14.0453H49.5725L49.567 0.963911ZM74.2453 5.72129V14.0453H71.1178V5.93483C71.1178 4.43662 70.3843 3.6987 68.7505 3.6987C66.8795 3.6987 66.3353 4.60322 66.3353 5.93483V14.0453H63.2334V5.93483C63.2334 4.43662 62.4999 3.6987 60.8182 3.6987C58.9717 3.6987 58.4509 4.60322 58.4509 5.93483V14.0453H55.3245V5.72129C55.3245 2.39169 57.7864 0.725763 60.8416 0.725763C62.2617 0.725763 63.8244 1.32058 64.8183 2.34361C65.7421 1.32058 67.3526 0.725763 68.7494 0.725763C71.6387 0.725763 74.2453 2.15466 74.2453 5.72129ZM85.1526 0.963911H88.2779V8.45495C88.2779 12.3559 86.289 14.2823 82.4536 14.2823C78.6416 14.2823 76.6282 12.3559 76.6282 8.45495V0.963911H79.7535V8.45495C79.7535 10.6195 80.9611 11.3094 82.4536 11.3094C83.9461 11.3094 85.1526 10.6206 85.1526 8.45607V0.963911ZM100.568 10.1924C100.568 12.452 99.2887 14.2834 95.4066 14.2834C93.4644 14.2834 91.5946 13.8362 90.1755 13.1419L90.909 10.406C92.4004 11.0254 93.8028 11.4771 95.2663 11.4771C96.8045 11.4771 97.4445 10.9773 97.4445 10.2875C97.4445 9.50482 96.6654 9.21747 95.1005 8.64614L94.2012 8.31072C91.4777 7.33465 90.3647 6.6694 90.3647 4.55291C90.3647 2.60188 91.264 0.722412 95.1239 0.722412C96.8523 0.722412 98.9359 1.12715 99.8596 1.43686L99.2675 4.12021C98.2725 3.85747 96.3315 3.5008 95.1005 3.5008C94.012 3.5008 93.49 3.73895 93.49 4.40532C93.49 5.02361 93.9163 5.18796 95.5969 5.80849L96.544 6.16515C99.4066 7.21949 100.568 8.09941 100.568 10.1924Z" fill="#5C2D91"/>
</svg>
