<svg width="32" height="32" viewBox="0 0 32 32" fill="none" xmlns="http://www.w3.org/2000/svg">
<path d="M31.8965 25.7262C31.5219 23.6812 29.9533 22.1821 29.2819 21.6217C29.12 21.4408 28.9268 21.2887 28.7091 21.175C27.7741 20.4846 26.6686 19.889 25.4275 19.3983C25.2461 19.2959 25.0479 19.2199 24.8377 19.1778C23.9147 18.8479 22.9252 18.5715 21.8805 18.3547C21.8108 17.5883 21.7745 16.801 21.7732 16.0032C21.7745 15.2027 21.8115 14.4136 21.8811 13.6453C22.9258 13.4285 23.9147 13.1521 24.8377 12.8223C25.0479 12.7795 25.2461 12.7035 25.4275 12.6017C26.6686 12.1104 27.7741 11.5148 28.7091 10.8244C28.9261 10.7107 29.1194 10.5586 29.2819 10.3777C29.9533 9.81789 31.5225 8.31823 31.8965 6.2726C31.9624 6.07218 32 5.85857 32 5.63554C32 5.5413 31.9913 5.44895 31.9787 5.35785C31.9787 5.3434 31.9787 5.32958 31.9781 5.31513C31.9781 5.29565 31.9774 5.27617 31.9768 5.2567C31.9762 5.23973 31.9756 5.22277 31.9749 5.20581C31.9743 5.18445 31.9731 5.16309 31.9718 5.14173C31.9712 5.12602 31.9699 5.11031 31.9693 5.09523C31.968 5.07199 31.9662 5.04811 31.9643 5.02487C31.963 5.01042 31.9618 4.9966 31.9605 4.98215C31.9586 4.95639 31.9561 4.93126 31.9536 4.9055C31.9524 4.89293 31.9511 4.87974 31.9492 4.86717C31.9461 4.83953 31.9429 4.81189 31.9392 4.78424C31.9379 4.77293 31.936 4.76163 31.9348 4.75032C31.931 4.72079 31.9266 4.69126 31.9222 4.6611C31.921 4.65105 31.9191 4.641 31.9172 4.63095C31.9122 4.59953 31.9072 4.56812 31.9009 4.53671C31.899 4.52791 31.8978 4.51849 31.8959 4.50969C31.8896 4.47639 31.8833 4.44372 31.8764 4.4098C31.8745 4.40226 31.8733 4.39409 31.8714 4.38655C31.8639 4.352 31.8563 4.31744 31.8476 4.28226C31.8457 4.27535 31.8438 4.26781 31.8425 4.2609C31.8338 4.22509 31.825 4.18865 31.8149 4.15221C31.8131 4.14593 31.8112 4.13964 31.8099 4.13336C31.7999 4.09629 31.7892 4.0586 31.7779 4.0209C31.776 4.01525 31.7742 4.00897 31.7723 4.00331C31.761 3.96561 31.7491 3.92729 31.7365 3.88897C31.7346 3.88268 31.7321 3.87703 31.7302 3.87075C31.7177 3.83242 31.7045 3.7941 31.6901 3.75577C31.6882 3.74949 31.6857 3.74384 31.6832 3.73756C31.6687 3.69923 31.6543 3.66028 31.6393 3.62133C31.6367 3.61504 31.6342 3.60813 31.6311 3.60185C31.6154 3.56353 31.5997 3.52457 31.5834 3.48625C31.5803 3.47871 31.5765 3.47117 31.5734 3.46363C31.5571 3.42594 31.5401 3.38761 31.5225 3.34992C31.5182 3.34112 31.5138 3.33232 31.51 3.32353C31.4924 3.28646 31.4749 3.25002 31.4567 3.21295C31.451 3.20227 31.4454 3.19097 31.4397 3.18028C31.4222 3.1451 31.404 3.10992 31.3851 3.07474C31.3782 3.06154 31.3707 3.04898 31.3638 3.03578C31.3456 3.00249 31.3274 2.96919 31.308 2.93589C31.2992 2.92018 31.2891 2.90448 31.2797 2.88877C31.2615 2.85799 31.2433 2.8272 31.2245 2.79642C31.2126 2.77694 31.2 2.75746 31.1875 2.73862C31.1699 2.71097 31.153 2.68396 31.1348 2.65631C31.1191 2.63244 31.1028 2.60856 31.0865 2.58469C31.0708 2.56144 31.0557 2.53883 31.0394 2.51558C31.0193 2.48668 30.998 2.45778 30.9767 2.42888C30.9635 2.41066 30.9509 2.39244 30.9371 2.37422C30.9114 2.33967 30.8838 2.30448 30.8568 2.2693C30.8474 2.25674 30.838 2.2448 30.828 2.23223C30.7947 2.19014 30.7596 2.14742 30.7244 2.10532C30.72 2.1003 30.7163 2.09527 30.7119 2.09025C30.5914 1.947 30.4609 1.80376 30.3185 1.66114L30.3178 1.66051C28.8157 0.15645 27.2665 -0.0653272 26.2312 0.0138341C23.5928 0.215507 21.7412 2.51998 21.4231 2.94217C20.0019 4.72644 18.9522 7.20997 18.3511 10.1107C17.5787 10.181 16.7931 10.2175 16.0032 10.2187C15.2094 10.2175 14.422 10.1804 13.6496 10.1107C13.0485 7.2106 11.9988 4.72707 10.5776 2.94217C10.2595 2.52061 8.40785 0.215507 5.76879 0.0138341C4.73412 -0.0646989 3.18432 0.15645 1.68032 1.66177C1.67404 1.66805 1.66839 1.67434 1.66212 1.68062C1.62134 1.72146 1.58118 1.76292 1.54228 1.80376C1.51906 1.82826 1.49647 1.85339 1.47388 1.87852C1.45318 1.90114 1.43184 1.92376 1.41177 1.94637C1.38416 1.97716 1.35781 2.00857 1.33082 2.03936C1.31702 2.05569 1.30259 2.07203 1.28879 2.08773C1.2593 2.12292 1.23106 2.15747 1.20282 2.19265C1.19279 2.20522 1.18275 2.21716 1.17271 2.22972C1.14259 2.26805 1.1131 2.30637 1.08424 2.34407C1.07733 2.35286 1.07043 2.36166 1.06353 2.37045C1.03341 2.41066 1.00455 2.4515 0.975687 2.49171C0.971295 2.49862 0.966276 2.5049 0.961256 2.51181C0.931138 2.55453 0.902903 2.59663 0.874668 2.63872C0.87153 2.64312 0.868393 2.64752 0.865883 2.65191C0.836393 2.69652 0.808158 2.74113 0.78055 2.78573C0.779295 2.78762 0.77804 2.79013 0.776785 2.79202C0.74855 2.83788 0.721569 2.88312 0.695216 2.92835C0.694589 2.92961 0.693962 2.93024 0.693334 2.93149C0.505726 3.2563 0.365804 3.57546 0.26353 3.88394C0.26353 3.88457 0.26353 3.88457 0.262902 3.8852C0.248471 3.92855 0.234667 3.9719 0.222118 4.01462C0.222118 4.01525 0.22149 4.0165 0.22149 4.01713C0.208941 4.05923 0.19702 4.10069 0.185726 4.14279C0.185098 4.14467 0.184471 4.14655 0.183843 4.14844C0.173177 4.18865 0.163137 4.22886 0.153098 4.26844C0.152471 4.27158 0.151216 4.27472 0.150588 4.27849C0.141177 4.31681 0.13302 4.35514 0.124863 4.39283C0.12549 4.39723 0.124235 4.40163 0.123608 4.40666C0.116079 4.4431 0.109177 4.47891 0.102275 4.51472C0.10102 4.521 0.0997648 4.52728 0.0985099 4.53357C0.0922354 4.56812 0.0865883 4.60205 0.0809413 4.63597C0.0796864 4.64351 0.0784315 4.65105 0.0771766 4.65859C0.0721569 4.69063 0.0677648 4.72267 0.0633726 4.75471C0.0621177 4.76414 0.0608628 4.77293 0.0596079 4.78236C0.0558432 4.81251 0.0520785 4.84267 0.0489412 4.8722C0.0476863 4.88225 0.0464314 4.89293 0.045804 4.90298C0.0426667 4.93126 0.0401569 4.95953 0.0382746 4.98717C0.0370197 4.99911 0.0363922 5.01042 0.0351373 5.02236C0.0332549 5.04874 0.0313726 5.0745 0.0294902 5.10089C0.0288628 5.11408 0.0282353 5.12665 0.0269804 5.13984C0.0257255 5.16434 0.0244706 5.18822 0.0238432 5.21272C0.0232157 5.22654 0.0225883 5.24099 0.0225883 5.25481C0.0219608 5.27743 0.0213334 5.30005 0.0213334 5.32267C0.0213334 5.33523 0.0213334 5.34717 0.0207059 5.35973C0.00878432 5.44957 0 5.5413 0 5.63617C0 5.8592 0.0370197 6.07281 0.10353 6.27386C0.478118 8.31886 2.04675 9.81789 2.71812 10.3783C2.88 10.5592 3.07326 10.7113 3.29098 10.825C4.22589 11.5155 5.33146 12.1111 6.57256 12.6024C6.75389 12.7048 6.95216 12.7808 7.16236 12.8229C8.08534 13.1527 9.07483 13.4292 10.1195 13.6459C10.1892 14.413 10.2256 15.1996 10.2268 15.9975C10.2256 16.7979 10.1886 17.587 10.1189 18.3554C9.07421 18.5721 8.08534 18.8486 7.16236 19.1784C6.95216 19.2211 6.75389 19.2971 6.57256 19.3989C5.33146 19.8902 4.22589 20.4858 3.29098 21.1763C3.07389 21.29 2.88063 21.442 2.71812 21.623C2.04675 22.1828 0.478118 23.6818 0.10353 25.7268C0.0370197 25.9278 0 26.1415 0 26.3645C0 26.4587 0.00878432 26.5511 0.0213334 26.6422C0.0213334 26.6547 0.0213334 26.6679 0.0219608 26.6805C0.0219608 26.7012 0.0225883 26.722 0.0232157 26.7427C0.0238432 26.7584 0.0244706 26.7735 0.0244706 26.7892C0.0250981 26.8118 0.026353 26.8351 0.0276079 26.8583C0.0282353 26.8721 0.0288628 26.8866 0.0301177 26.901C0.0313726 26.9262 0.0332549 26.9513 0.0351373 26.9764C0.0363922 26.989 0.0370197 27.0015 0.0382746 27.0141C0.0407844 27.0411 0.0432942 27.0688 0.045804 27.0964C0.0470589 27.1071 0.0483138 27.1184 0.0495687 27.1291C0.0527059 27.1586 0.0564707 27.1881 0.0602354 27.2177C0.0614903 27.2271 0.0627452 27.2365 0.0640001 27.2459C0.0683922 27.2774 0.0727844 27.3094 0.077804 27.3414C0.0790589 27.349 0.0803138 27.3571 0.0815687 27.3647C0.0872158 27.3986 0.0928629 27.4325 0.0991374 27.4665C0.100392 27.4727 0.101647 27.479 0.102902 27.4859C0.109804 27.5217 0.116706 27.5576 0.124235 27.5934C0.12549 27.5984 0.126118 27.6034 0.127373 27.6084C0.13553 27.6461 0.143686 27.6838 0.153098 27.7215C0.153726 27.7253 0.154981 27.7291 0.156235 27.7328C0.165647 27.7718 0.175686 27.8114 0.186353 27.851C0.186981 27.8535 0.188236 27.8566 0.188863 27.8591C0.200157 27.9 0.211451 27.9408 0.224 27.9816C0.224628 27.9835 0.225255 27.9854 0.225883 27.9873C0.238432 28.0294 0.251608 28.0708 0.265412 28.1136C0.26604 28.1155 0.266667 28.1167 0.267294 28.1186C0.281726 28.1613 0.296157 28.204 0.311843 28.2474C0.312471 28.2486 0.312471 28.2499 0.313098 28.2512C0.328785 28.2945 0.345098 28.3379 0.362667 28.3818C0.363295 28.3837 0.363922 28.385 0.364549 28.3869C0.381491 28.4302 0.399687 28.4736 0.41851 28.5169C0.419765 28.5194 0.420393 28.5213 0.421648 28.5238C0.440471 28.5672 0.459295 28.6099 0.479373 28.6532C0.480628 28.6564 0.481883 28.6589 0.483765 28.662C0.503844 28.7048 0.52455 28.7475 0.545883 28.7902C0.547765 28.794 0.550275 28.7984 0.552158 28.8021C0.573491 28.8442 0.594824 28.8863 0.61804 28.9284C0.62055 28.9335 0.623687 28.9385 0.626197 28.9435C0.648785 28.9843 0.671373 29.0258 0.695216 29.0666C0.699609 29.0736 0.704001 29.0811 0.707765 29.0886C0.730354 29.1276 0.753569 29.1672 0.77804 29.2061C0.784315 29.2162 0.790589 29.2256 0.796864 29.2356C0.820079 29.2721 0.843295 29.3092 0.867138 29.3456C0.875923 29.3588 0.885334 29.372 0.894119 29.3852C0.916707 29.4185 0.939295 29.4524 0.962511 29.4857C0.974432 29.5027 0.986982 29.519 0.998903 29.536C1.02086 29.5661 1.0422 29.5969 1.06479 29.6271C1.07984 29.6472 1.09616 29.6679 1.11184 29.688C1.13255 29.715 1.15263 29.7414 1.17396 29.7684C1.19404 29.7942 1.21537 29.8193 1.23671 29.8451C1.25428 29.8671 1.27184 29.8884 1.29004 29.9104C1.31639 29.9418 1.34463 29.9739 1.37224 30.0053C1.38604 30.021 1.39922 30.0367 1.41365 30.0524C1.45255 30.0957 1.49271 30.1391 1.53349 30.1831C1.53726 30.1868 1.54102 30.1912 1.54479 30.195C1.58934 30.2428 1.63577 30.2899 1.68283 30.3376L1.68345 30.3383C3.01992 31.6758 4.39216 31.9994 5.40738 31.9994C5.53475 31.9994 5.65585 31.9944 5.7713 31.9856C8.41036 31.7839 10.262 29.4788 10.5795 29.0572C12.0006 27.2723 13.0504 24.7894 13.6515 21.8887C14.4239 21.8184 15.2094 21.7819 15.9994 21.7807C16.7931 21.7819 17.5806 21.819 18.353 21.8887C18.9541 24.7888 20.0038 27.273 21.4256 29.0579C21.7437 29.48 23.5953 31.7845 26.2338 31.9862C26.3486 31.995 26.4703 32 26.5977 32C27.6129 32 28.9858 31.6758 30.3229 30.3383C30.3354 30.3257 30.3473 30.3131 30.3599 30.3006C30.3938 30.266 30.4283 30.2314 30.4609 30.1963C30.486 30.1699 30.5098 30.1429 30.5343 30.1165C30.5531 30.0957 30.5732 30.075 30.5914 30.0543C30.6209 30.0216 30.6485 29.9889 30.6767 29.9563C30.6893 29.9418 30.7025 29.9274 30.7144 29.9129C30.7451 29.8765 30.774 29.8407 30.8035 29.8042C30.8123 29.7935 30.8217 29.7822 30.8305 29.7716C30.8612 29.7326 30.8907 29.6943 30.9202 29.6553C30.9265 29.6472 30.9334 29.6384 30.9396 29.6302C30.9704 29.5894 30.9999 29.5485 31.0287 29.5071C31.0331 29.5008 31.0375 29.4951 31.0419 29.4888C31.0727 29.4449 31.1022 29.4015 31.131 29.3575C31.1329 29.3544 31.1354 29.3513 31.1373 29.3481C31.1674 29.3029 31.1963 29.257 31.2245 29.2118C31.2251 29.2105 31.2258 29.2093 31.227 29.208C31.515 28.7425 31.7026 28.2857 31.8187 27.8541C31.8187 27.8535 31.8187 27.8528 31.8193 27.8528C31.8306 27.8114 31.8413 27.7699 31.8507 27.7284C31.8513 27.7266 31.852 27.7247 31.852 27.7228C31.8614 27.6832 31.8702 27.6436 31.8789 27.604C31.8796 27.6009 31.8802 27.5978 31.8808 27.594C31.889 27.5563 31.8959 27.5192 31.9028 27.4822C31.904 27.4771 31.9047 27.4721 31.9059 27.4671C31.9122 27.4319 31.9185 27.3967 31.9241 27.3615C31.9254 27.3546 31.926 27.3483 31.9273 27.3414C31.9323 27.3081 31.9373 27.2755 31.9417 27.2428C31.9429 27.2346 31.9442 27.2258 31.9448 27.2177C31.9486 27.1869 31.9524 27.1567 31.9555 27.1266C31.9567 27.1159 31.958 27.1058 31.9586 27.0952C31.9618 27.0675 31.9643 27.0392 31.9662 27.0122C31.9674 26.9997 31.968 26.9877 31.9693 26.9752C31.9712 26.9494 31.9731 26.9243 31.9743 26.8991C31.9749 26.8853 31.9762 26.8715 31.9768 26.8577C31.9781 26.8344 31.9793 26.8118 31.98 26.7886C31.9806 26.7729 31.9812 26.7571 31.9812 26.7421C31.9818 26.7213 31.9825 26.7006 31.9825 26.6799C31.9825 26.6667 31.9825 26.6535 31.9831 26.6403C31.9956 26.5492 32.0044 26.4575 32.0044 26.3626C32 26.1408 31.963 25.9272 31.8965 25.7262ZM24.5679 5.42382L24.6206 5.35533C24.859 5.03052 25.7933 4.06802 26.5362 4.01148C26.6548 4.00268 26.971 3.97818 27.488 4.4965C27.4943 4.50278 27.4993 4.50843 27.505 4.51409C27.5307 4.54048 27.5564 4.56686 27.5796 4.59199C27.5834 4.59639 27.5872 4.60016 27.5909 4.60456C27.6148 4.63095 27.638 4.65733 27.6593 4.68309C27.6606 4.68435 27.6612 4.68623 27.6625 4.68749C27.8808 4.95073 27.9505 5.15115 27.9693 5.28811C27.9699 5.29062 27.9699 5.29251 27.9699 5.29502C27.9712 5.30382 27.9718 5.31198 27.9724 5.32015C27.9574 5.41439 27.948 5.51052 27.9467 5.60853C27.7999 6.24935 27.0978 6.98003 26.7376 7.28222C26.5908 7.36955 26.4552 7.47384 26.3354 7.59447C25.6866 8.07383 24.886 8.49791 23.9699 8.85916C23.7974 8.89937 23.633 8.96094 23.4805 9.04199C23.2239 9.13309 22.9603 9.21916 22.6893 9.30083C23.1624 7.72075 23.8005 6.38066 24.5679 5.42382ZM4.03012 5.28874C4.04455 5.18256 4.08973 5.03932 4.20895 4.85901C4.21083 4.85649 4.21208 4.85398 4.21397 4.85084C4.22714 4.83136 4.2422 4.81063 4.25726 4.7899C4.26228 4.78236 4.2673 4.77608 4.27232 4.76854C4.28361 4.75346 4.29679 4.73775 4.30934 4.72204C4.32 4.70885 4.33004 4.69566 4.34134 4.68184C4.34824 4.67367 4.35577 4.6655 4.3633 4.65671C4.40722 4.60519 4.45616 4.55178 4.51201 4.49587C5.02714 3.98006 5.34024 4.00205 5.45883 4.01085C6.11263 4.05671 6.99609 4.84581 7.37946 5.35533L7.43217 5.42382C8.19954 6.38066 8.83766 7.72075 9.3095 9.3002C9.03781 9.21916 8.77428 9.13246 8.51766 9.04136C8.36519 8.95969 8.20079 8.89874 8.02824 8.85853C7.11279 8.49791 6.31154 8.0732 5.66338 7.59384C5.54354 7.47321 5.40801 7.36955 5.26118 7.28159C4.90102 6.9794 4.19891 6.24935 4.05208 5.6079C4.05083 5.50989 4.04142 5.41376 4.02636 5.31952C4.02698 5.31136 4.02761 5.30382 4.02887 5.29502C4.02949 5.29377 4.03012 5.29125 4.03012 5.28874ZM7.43217 26.5762L7.37946 26.6453C7.14103 26.9701 6.20675 27.9326 5.46385 27.9892C5.34589 27.9986 5.02903 28.0225 4.51138 27.5042C4.45177 27.4445 4.40032 27.3879 4.35389 27.3333C4.34949 27.3282 4.3451 27.3232 4.34071 27.3188C4.32942 27.3056 4.32 27.2924 4.30934 27.2792C4.29679 27.2635 4.28299 27.2472 4.27169 27.2315C4.2673 27.2252 4.26353 27.2202 4.25914 27.2139C4.24283 27.1919 4.22714 27.1699 4.21271 27.1492C4.21271 27.1486 4.21208 27.1486 4.21208 27.1479C4.0891 26.9638 4.04393 26.8187 4.02887 26.7113C4.02887 26.7094 4.02824 26.7081 4.02824 26.7063C4.02698 26.6968 4.02636 26.6887 4.02573 26.6799C4.04079 26.5856 4.0502 26.4895 4.05146 26.3915C4.19828 25.7507 4.9004 25.02 5.26055 24.7178C5.40738 24.6305 5.54291 24.5262 5.66275 24.4056C6.31154 23.9262 7.11216 23.5021 8.02824 23.1409C8.20079 23.1007 8.36519 23.0391 8.51766 22.958C8.77428 22.8669 9.03781 22.7809 9.3095 22.6992C8.83766 24.2793 8.19954 25.6194 7.43217 26.5762ZM17.8246 17.827C17.2204 17.7918 16.6105 17.773 15.9969 17.7717C15.3857 17.7723 14.7784 17.7918 14.1754 17.827C14.2105 17.2264 14.23 16.6163 14.2306 15.9975C14.23 15.3805 14.2105 14.7718 14.1754 14.1736C14.7796 14.2088 15.3895 14.2277 16.0032 14.2289C16.6143 14.2283 17.2223 14.2095 17.8246 14.1736C17.7895 14.7743 17.7701 15.3843 17.7694 16.0038C17.7707 16.6201 17.7895 17.2283 17.8246 17.827ZM27.9699 26.7119C27.968 26.7264 27.9655 26.7414 27.9624 26.7571C27.9624 26.7578 27.9624 26.7584 27.9618 26.759C27.9448 26.842 27.909 26.9437 27.8388 27.0644C27.8375 27.0669 27.8363 27.0694 27.8344 27.0725C27.8237 27.0908 27.8112 27.1096 27.7992 27.1285C27.7949 27.1354 27.7905 27.1423 27.7854 27.1498C27.776 27.1636 27.7654 27.1781 27.7553 27.1925C27.7459 27.2057 27.7371 27.2183 27.7271 27.2321C27.7214 27.2397 27.7152 27.2472 27.7095 27.2547C27.6499 27.332 27.5778 27.4149 27.4887 27.5035C26.9729 28.0187 26.6598 27.9967 26.5418 27.9892C25.888 27.9433 25.0046 27.1542 24.6212 26.6447L24.5685 26.5756C23.8011 25.6187 23.163 24.2786 22.6912 22.6992C22.9629 22.7802 23.2264 22.8669 23.483 22.958C23.6355 23.0397 23.7999 23.1007 23.9724 23.1409C24.8879 23.5015 25.6891 23.9262 26.3379 24.4056C26.4578 24.5262 26.5933 24.6298 26.7401 24.7178C27.1003 25.02 27.8024 25.75 27.9492 26.3915C27.9505 26.4895 27.9599 26.5856 27.9749 26.6799C27.9743 26.6874 27.9737 26.695 27.9724 26.7031C27.9705 26.7056 27.9699 26.7088 27.9699 26.7119Z" fill="#5C2D91"/>
</svg>
