<svg width="16" height="16" viewBox="0 0 16 16" fill="none" xmlns="http://www.w3.org/2000/svg">
<path d="M15.6274 13.1821L12.0195 9.57348C11.6158 9.17402 10.9657 9.11032 10.1453 9.17402L10.1707 8.96566C10.481 6.74275 10.9058 3.69926 8.69623 1.48483C8.58141 1.3706 8.46125 1.26203 8.33608 1.15911C6.15976 -0.628887 2.94659 -0.313525 1.15898 1.86326C-0.628629 4.04004 -0.313335 7.25423 1.86298 9.04191C4.03866 10.8569 6.88604 10.4615 8.96823 10.1725L9.17215 10.1427C9.10847 10.9673 9.15082 11.5962 9.57592 12.0214L13.1794 15.6256C13.4181 15.8647 13.7422 15.9993 14.0804 15.9997C14.4183 15.9993 14.7424 15.8647 14.9814 15.6256L15.6274 14.9839C16.1243 14.4865 16.1243 13.6798 15.6274 13.1821ZM9.32933 8.84673C9.31239 8.99547 9.27411 9.13573 9.27411 9.27192L8.84902 9.33154C6.83051 9.61207 4.28086 9.96478 2.41106 8.38796C1.50376 7.65557 0.937175 6.58271 0.843999 5.42042C0.656391 3.07984 2.4007 1.03077 4.74016 0.843118C4.85749 0.836842 4.97545 0.836842 5.09278 0.843118C6.22314 0.838411 7.30863 1.28682 8.1058 2.08856C10.0051 4.00113 9.63113 6.68752 9.32933 8.84673ZM15.0238 14.3977L14.3822 15.0394C14.3813 15.0404 14.3806 15.041 14.3797 15.042C14.2131 15.2073 13.9439 15.2061 13.7786 15.0394L10.1751 11.4352C9.97529 11.2353 9.97529 10.6956 10.0393 10.0495V10.0366C10.6853 9.97293 11.2208 9.97701 11.4203 10.1769L15.0238 13.794C15.1034 13.8743 15.1477 13.9829 15.1471 14.0959C15.1477 14.2088 15.1034 14.3174 15.0238 14.3977Z" fill="white"/>
</svg>
